inDegrees=no
num_controls=7
num_derivatives=13
num_iterations=108
num_multipliers=7
num_parameters=0
num_slacks=7
num_states=26
objective=0.545184
objective_accelerations=0.042125
objective_balance=0.003785
objective_effort=0.041091
objective_height=0.448712
objective_ligament=0.009470
solver_duration=1435.486382
status=Solve_Succeeded
success=true
DataType=double
version=3
OpenSimVersion=4.5
endheader
time	/jointset/ground_pelvis/pelvis_tilt/value	/jointset/ground_pelvis/pelvis_tx/value	/jointset/ground_pelvis/pelvis_ty/value	/jointset/hip_r/hip_flexion_r/value	/jointset/hip_r/hip_adduction_r/value	/jointset/hip_r/hip_rotation_r/value	/jointset/back/lumbar_extension/value	/jointset/patellofemoral_r/patellar_flexion_r/value	/jointset/knee_r/knee_flexion_r/value	/jointset/knee_r/knee_adduction_r/value	/jointset/knee_r/knee_rotation_r/value	/jointset/ankle_r/ankle_angle_r/value	/jointset/subtalar_r/subtalar_angle_r/value	/jointset/ground_pelvis/pelvis_tilt/speed	/jointset/ground_pelvis/pelvis_tx/speed	/jointset/ground_pelvis/pelvis_ty/speed	/jointset/hip_r/hip_flexion_r/speed	/jointset/hip_r/hip_adduction_r/speed	/jointset/hip_r/hip_rotation_r/speed	/jointset/back/lumbar_extension/speed	/jointset/patellofemoral_r/patellar_flexion_r/speed	/jointset/knee_r/knee_flexion_r/speed	/jointset/knee_r/knee_adduction_r/speed	/jointset/knee_r/knee_rotation_r/speed	/jointset/ankle_r/ankle_angle_r/speed	/jointset/subtalar_r/subtalar_angle_r/speed	/forceset/tau_hip_flexion_r	/forceset/tau_hip_adduction_r	/forceset/tau_hip_rotation_r	/forceset/tau_knee_flexion_r	/forceset/tau_ankle_angle_r	/forceset/tau_subtalar_angle_r	/forceset/tau_lumbar_extension	lambda_cid13_p0	lambda_cid14_p0	lambda_cid14_p1	lambda_cid14_p2	lambda_cid14_p3	lambda_cid14_p4	lambda_cid14_p5	/jointset/ground_pelvis/pelvis_tilt/accel	/jointset/ground_pelvis/pelvis_tx/accel	/jointset/ground_pelvis/pelvis_ty/accel	/jointset/hip_r/hip_flexion_r/accel	/jointset/hip_r/hip_adduction_r/accel	/jointset/hip_r/hip_rotation_r/accel	/jointset/back/lumbar_extension/accel	/jointset/patellofemoral_r/patellar_flexion_r/accel	/jointset/knee_r/knee_flexion_r/accel	/jointset/knee_r/knee_adduction_r/accel	/jointset/knee_r/knee_rotation_r/accel	/jointset/ankle_r/ankle_angle_r/accel	/jointset/subtalar_r/subtalar_angle_r/accel	gamma_cid13_p0	gamma_cid14_p0	gamma_cid14_p1	gamma_cid14_p2	gamma_cid14_p3	gamma_cid14_p4	gamma_cid14_p5
1.5	-0.2359227452575248	0.004504309453166456	0.847538969640846	0.8843400618660563	-0.2253843966754044	-0.142150120913053	-0.3055070056766946	0.6535795923166764	0.6535795923170602	0.03672088467413316	0.1745237297656048	0.1725468448127551	0.03736960653044388	0.5771395023162519	0.2396924174200445	0.4062751902892765	-2.010676831231027	0.01267048792132206	-0.2922621789911125	0.6918829159714687	-1.746112205044628	-1.746112205044587	0.2747213739972844	6.312168131348173e-05	-0.3928500143605914	-0.08516092815112285	-0.148413736876254	-0.01777629115515267	0.007787064959379664	-0.2903544136404184	0.1048717022558239	-0.0110939850168432	0.1786895422875346	-33.90137191494548	-7.987149044861297	-1.959170993729008	-4.090705264973921	-2.000618271976851	-658.1225530742381	56.03044604585271	0.2828380042932375	0.5289132269105605	-0.4533919697963912	-1.162290394731931	0.01080791528339163	-0.5234978872895032	1.644606413100413	-1.097826714027338	-1.097826714027342	0.4331041151069611	0.01445615627695761	-0.3376520161012916	-0.04014056452920672	1.248402698395857e-07	1.830701765183411e-07	-3.916804022584606e-07	1.241196586818663e-06	-6.05132064135342e-08	2.425598785931389e-07	-4.352803511367108e-07
1.51	-0.2301377251851626	0.006927442966704533	0.851578226503407	0.8641772123417357	-0.2252581201957945	-0.1450976280862624	-0.2985070006691029	0.6360657940283823	0.6360657940285185	0.03949217645091498	0.1745250893861531	0.1686017712963653	0.03651488133852424	0.5797843908283662	0.244906085105429	0.4014927648056585	-2.021634621736933	0.01257752471196481	-0.2972024557465485	0.708037927398665	-1.756411419525387	-1.756411419525401	0.2795475987533608	0.0001909309469683486	-0.3961045108551098	-0.08577639897965882	-0.140620851846708	-0.01943367056536983	0.007170796105096472	-0.2876174577194771	0.1069257856422548	-0.01161441381507827	0.1720125903555138	-34.81500165822813	-7.131222382125388	-1.933122423509103	-4.211599486450789	-2.257085918988464	-654.0755170892588	56.20419035383394	0.2433160147093769	0.5133528636030632	-0.5031285318353413	-1.023730093721202	-0.02030198824596043	-0.4735549610150808	1.588924785303414	-0.9605912978110269	-0.960591297819068	0.5089667813695627	0.009509412085931779	-0.3103133419145373	-0.07101946911216325	1.330176286075492e-07	1.879821017589844e-07	-4.58443044270423e-07	1.275364193520808e-06	-5.571425515506638e-08	2.538010785973106e-07	-4.86820972255115e-07
1.52	-0.2243286558796715	0.009401865021946605	0.8555671669722935	0.8439125435693153	-0.225132964058119	-0.1480933905052947	-0.2913478502916845	0.6184560790987386	0.6184560790986262	0.04231204750035909	0.1745272403194313	0.1646259598398729	0.03565424761289997	0.5819493489420333	0.2499501257608436	0.3962119115544012	-2.031040680850888	0.01244641953458138	-0.3019132281557624	0.7237119899368268	-1.765295533314577	-1.765295533314644	0.2844372285298991	0.0002213842276704141	-0.3989976023811249	-0.08634263489204921	-0.1328279668171665	-0.02109104997558829	0.006554527250810822	-0.2848805017985365	0.1089798690286854	-0.0121348426133152	0.1653356384234893	-35.69705967287808	-6.283330221811728	-1.905427783914474	-4.336244142826347	-2.511761725157254	-650.1576550162765	56.4563533493729	0.1868519246037823	0.4949878209165515	-0.5530775233242712	-0.8519441163417362	0.003179521678158183	-0.4775970180450476	1.548416635293488	-0.8148065757132331	-0.8148065757132431	0.4457851191993042	-0.005015040713616927	-0.2653710224006346	-0.03029358130009051	1.41534073432702e-07	1.902705719357062e-07	-5.468105505296865e-07	1.292110252980422e-06	-4.727661831195717e-08	2.647331400911808e-07	-5.446204042103807e-07
1.53	-0.2185003636320883	0.0119258556130277	0.859500868874458	0.8235615795471642	-0.2250092940350857	-0.151135508868139	-0.2840344328287304	0.6007646272401034	0.6007646272401083	0.04518084802015895	0.1745294710754121	0.1606230810098725	0.03478824511103835	0.5836251851698918	0.2548168734493399	0.3904512445702319	-2.038886960188393	0.01228874879990957	-0.3064854516845473	0.7388842974764305	-1.772752175493943	-1.772752175493941	0.289306156467873	0.0002097866383812786	-0.4015095776401832	-0.08683789062913344	-0.1249342583851897	-0.02300180665881466	0.005958667608435906	-0.2823906461050419	0.1113967560480336	-0.01278160907246875	0.1585863788440801	-36.54297526781189	-5.334260858984943	-1.918402155505451	-4.450388086698015	-2.83113840062626	-646.3998888369467	56.69687901564126	0.1453818571873397	0.4778447146898353	-0.5990887295210402	-0.7111699438669418	-0.02495208443846172	-0.4430505520347935	1.48855703666785	-0.6747246338060056	-0.6747246337955981	0.5049015920119534	-0.001231254814016625	-0.2338094123989312	-0.0561069704838887	1.504107971936185e-07	1.897716211070112e-07	-6.581332250517069e-07	1.290345918494846e-06	-3.497287803516652e-08	2.753367419178554e-07	-6.090698226798115e-07
